<?xml version="1.0" encoding="UTF-8" standalone="no"?>
<!-- Created with Inkscape (http://www.inkscape.org/) -->

<svg
   width="6.1969147mm"
   height="15.956244mm"
   viewBox="0 0 6.196915 15.956244"
   version="1.1"
   id="svg1"
   inkscape:version="1.4.2 (ebf0e94, 2025-05-08)"
   sodipodi:docname="provpåsklämma.svg"
   xml:space="preserve"
   xmlns:inkscape="http://www.inkscape.org/namespaces/inkscape"
   xmlns:sodipodi="http://sodipodi.sourceforge.net/DTD/sodipodi-0.dtd"
   xmlns="http://www.w3.org/2000/svg"
   xmlns:svg="http://www.w3.org/2000/svg"
   xmlns:rdf="http://www.w3.org/1999/02/22-rdf-syntax-ns#"
   xmlns:cc="http://creativecommons.org/ns#"
   xmlns:dc="http://purl.org/dc/elements/1.1/"><sodipodi:namedview
     id="namedview1"
     pagecolor="#ffffff"
     bordercolor="#999999"
     borderopacity="1"
     inkscape:showpageshadow="2"
     inkscape:pageopacity="0"
     inkscape:pagecheckerboard="0"
     inkscape:deskcolor="#d1d1d1"
     inkscape:document-units="mm"
     inkscape:zoom="4.2226431"
     inkscape:cx="57.665304"
     inkscape:cy="28.536629"
     inkscape:window-width="2494"
     inkscape:window-height="1371"
     inkscape:window-x="0"
     inkscape:window-y="0"
     inkscape:window-maximized="1"
     inkscape:current-layer="layer1" /><defs
     id="defs1"><marker
       style="overflow:visible"
       id="Triangle"
       refX="0"
       refY="0"
       orient="auto-start-reverse"
       inkscape:stockid="Triangle arrow"
       markerWidth="1"
       markerHeight="1"
       viewBox="0 0 1 1"
       inkscape:isstock="true"
       inkscape:collect="always"
       preserveAspectRatio="xMidYMid"><path
         transform="scale(0.5)"
         style="fill:context-stroke;fill-rule:evenodd;stroke:context-stroke;stroke-width:1pt"
         d="M 5.77,0 -2.88,5 V -5 Z"
         id="path135" /></marker><inkscape:path-effect
       effect="powerclip"
       message=""
       id="path-effect11"
       is_visible="true"
       lpeversion="1"
       inverse="true"
       flatten="false"
       hide_clip="false" /><clipPath
       clipPathUnits="userSpaceOnUse"
       id="clipPath11"><rect
         style="display:block;fill:#ff0000;fill-rule:evenodd;stroke:none;stroke-width:0.709052;stroke-linecap:square;stroke-dasharray:none"
         id="rect11"
         width="49.002499"
         height="20.646624"
         x="103.4596"
         y="18.076426" /></clipPath></defs><g
     inkscape:label="Layer 1"
     inkscape:groupmode="layer"
     id="layer1"
     transform="translate(-182.24877,-47.88179)"><path
       id="rect1"
       style="fill:#ffffff;fill-rule:evenodd;stroke:#000000;stroke-width:0.258716;stroke-linecap:square"
       d="m 184.00538,52.096365 c -0.006,0 -0.0111,0.005 -0.0111,0.01115 v 6.198712 c 0,2.99e-4 -3e-5,6.76e-4 0,9.22e-4 a 1.353031,1.3383239 0 0 0 0,0.01021 1.353031,1.3383239 0 0 0 1.35305,1.338306 1.353031,1.3383239 0 0 0 1.35297,-1.338306 1.353031,1.3383239 0 0 0 0,-0.01021 c 3e-5,-2.99e-4 0,-6.15e-4 0,-9.22e-4 v -6.198713 c 0,-0.0062 -0.005,-0.01115 -0.0111,-0.01115 z" /><path
       id="path3"
       style="fill:#ffffff;fill-rule:evenodd;stroke:#000000;stroke-width:0.258716;stroke-linecap:square"
       d="m 184.00538,50.269132 c -0.006,0 -0.0111,0.005 -0.0111,0.01115 v 6.198713 c 0,2.99e-4 -3e-5,6.76e-4 0,9.22e-4 a 1.353031,1.3383239 0 0 0 0,0.0102 1.353031,1.3383239 0 0 0 1.35305,1.338306 1.353031,1.3383239 0 0 0 1.35297,-1.338306 1.353031,1.3383239 0 0 0 0,-0.0102 c 3e-5,-2.99e-4 0,-6.15e-4 0,-9.22e-4 v -6.198713 c 0,-0.0062 -0.005,-0.01115 -0.0111,-0.01115 z" /><path
       style="fill:#ffffff;fill-rule:evenodd;stroke:#000000;stroke-width:0.258746;stroke-linecap:round;stroke-linejoin:round;stroke-dasharray:none"
       d="m 182.37814,50.547763 h 5.93817 c 0,0 -0.15043,-2.5366 -3.02551,-2.5366 -2.78111,0 -2.91266,2.5366 -2.91266,2.5366 z"
       id="path2"
       sodipodi:nodetypes="ccsc" /><path
       style="fill:#ffffff;fill-rule:evenodd;stroke:#000000;stroke-width:0.258746;stroke-linecap:round;stroke-linejoin:round;stroke-dasharray:none;marker-end:url(#Triangle)"
       d="m 185.34722,60.381773 v 2.537434"
       id="path4" /></g><metadata
     id="metadata1"><rdf:RDF><cc:Work
         rdf:about=""><dc:creator><cc:Agent><dc:title>Thomas Axelsson</dc:title></cc:Agent></dc:creator><cc:license
           rdf:resource="http://creativecommons.org/licenses/by-nc-sa/4.0/" /></cc:Work><cc:License
         rdf:about="http://creativecommons.org/licenses/by-nc-sa/4.0/"><cc:permits
           rdf:resource="http://creativecommons.org/ns#Reproduction" /><cc:permits
           rdf:resource="http://creativecommons.org/ns#Distribution" /><cc:requires
           rdf:resource="http://creativecommons.org/ns#Notice" /><cc:requires
           rdf:resource="http://creativecommons.org/ns#Attribution" /><cc:prohibits
           rdf:resource="http://creativecommons.org/ns#CommercialUse" /><cc:permits
           rdf:resource="http://creativecommons.org/ns#DerivativeWorks" /><cc:requires
           rdf:resource="http://creativecommons.org/ns#ShareAlike" /></cc:License></rdf:RDF></metadata></svg>
